<svg width="223" height="175" viewBox="0 0 223 175" fill="none" xmlns="http://www.w3.org/2000/svg">
<path d="M183.65 33.6648H173.391V49.0608H158.004V64.4564H142.617V49.0608H127.229V33.6648H111.842V49.0608H96.4548V64.4564H81.0678V49.0608H65.6804V33.6648H50.293V141.436H188.779V33.6648H183.65ZM142.617 84.9843V95.2485H111.842V110.644H142.617V126.04H96.4548V79.8525H142.617V84.9843Z" fill="#9F7AF8"/>
<path d="M34.9068 18.269V33.6649H19.5195V156.832H34.9068V33.6649H50.2941V18.269H34.9068Z" fill="#371D70"/>
<path d="M96.457 79.8525V126.04H142.618V110.644H111.844V95.2486H142.618V79.8525H96.457Z" fill="#371D70"/>
<path d="M111.844 33.6649H96.457V18.269H111.844V33.6649Z" fill="#371D70"/>
<path d="M96.4578 33.6649V49.0608H81.0703V33.6649H96.4578Z" fill="#371D70"/>
<path d="M158.005 18.269V33.6649H142.617V49.0608H158.005V33.6649H173.392V18.269H158.005Z" fill="#371D70"/>
<path d="M65.6839 33.6649H50.2969V18.269H65.6839V33.6649Z" fill="#CBBBFB"/>
<path d="M81.071 49.0608H65.6836V33.6649H81.071V49.0608Z" fill="#CBBBFB"/>
<path d="M96.4573 49.0608V64.4569H81.0703V49.0608H96.4573Z" fill="#CBBBFB"/>
<path d="M111.844 33.6649V49.0608H96.457V33.6649H111.844Z" fill="#CBBBFB"/>
<path d="M127.231 33.6649H111.844V18.269H127.231V33.6649Z" fill="#CBBBFB"/>
<path d="M142.617 49.0608V33.6649H127.23V49.0608H142.617Z" fill="#CBBBFB"/>
<path d="M158.005 49.0608H142.617V64.4569H158.005V49.0608Z" fill="#CBBBFB"/>
<path d="M173.395 33.6649V49.0608H158.008V33.6649H173.395Z" fill="#CBBBFB"/>
<path d="M188.782 33.6649H173.395V18.269H188.782V33.6649Z" fill="#CBBBFB"/>
<path d="M188.779 33.6649V141.436H50.2937V33.6649H34.9062V156.832H204.166V33.6649H188.779Z" fill="#CBBBFB"/>
<path d="M34.9062 18.2179V2.82202H65.6809V18.2179H34.9062Z" fill="#170738"/>
<path d="M96.458 18.2179V33.6138H65.6836V18.2179H96.458Z" fill="#170738"/>
<path d="M127.231 18.2179H96.457V2.82202H127.231V18.2179Z" fill="#170738"/>
<path d="M158.005 18.2179V33.6138H127.23V18.2179H158.005Z" fill="#170738"/>
<path d="M188.782 18.2179H158.008V2.82202H188.782V18.2179Z" fill="#170738"/>
<path d="M204.169 33.6138V18.2179H188.781V33.6138H204.169Z" fill="#170738"/>
<path d="M204.168 156.781V33.6138H219.555V156.781H204.168Z" fill="#170738"/>
<path d="M19.5195 156.781H204.167V172.177H19.5195V156.781Z" fill="#170738"/>
<path d="M19.5201 33.6138V156.781H4.13281V33.6138H19.5201Z" fill="#170738"/>
<path d="M19.5195 33.6138H34.9068V18.2179H19.5195V33.6138Z" fill="#170738"/>
</svg>
